<?xml version="1.0" standalone="no"?>
<!DOCTYPE svg PUBLIC "-//W3C//DTD SVG 20010904//EN"
 "http://www.w3.org/TR/2001/REC-SVG-20010904/DTD/svg10.dtd">
<svg version="1.0" xmlns="http://www.w3.org/2000/svg"
 width="434.000000pt" height="426.000000pt" viewBox="0 0 434.000000 426.000000"
 preserveAspectRatio="xMidYMid meet">
<metadata>
Created by potrace 1.16, written by Peter Selinger 2001-2019
</metadata>
<g transform="translate(0.000000,426.000000) scale(0.100000,-0.100000)"
fill="#000000" stroke="none">
<path d="M1860 3845 c-151 -76 -315 -157 -365 -180 -329 -157 -1023 -505
-1035 -520 -13 -16 -15 -139 -15 -970 0 -911 1 -954 18 -973 11 -11 60 -44
110 -73 51 -29 133 -76 182 -105 623 -365 1393 -804 1410 -804 12 0 70 28 131
63 286 165 678 391 964 557 173 100 375 216 448 259 74 42 145 87 158 100 l24
24 0 943 c0 711 -3 950 -12 969 -9 20 -39 40 -112 75 -56 26 -263 127 -460
224 -197 97 -360 176 -361 176 -1 0 -168 81 -371 181 -203 100 -385 183 -404
186 -30 4 -75 -15 -310 -132z m382 -99 c202 -95 693 -338 695 -344 2 -4 -11
-15 -27 -24 -17 -9 -34 -27 -40 -40 -5 -13 -46 -106 -91 -208 -67 -152 -109
-277 -109 -323 0 -8 40 -1 82 15 31 12 43 43 118 318 23 85 46 163 52 173 5 9
20 17 35 17 14 0 42 5 63 11 30 9 43 8 68 -5 19 -10 32 -24 32 -36 0 -17 -9
-19 -81 -22 l-82 -3 -53 -185 c-29 -102 -53 -194 -53 -206 -2 -46 83 -84 143
-64 18 6 42 21 54 33 l21 22 -20 70 c-36 128 -79 295 -79 305 0 16 272 13 294
-3 16 -12 16 -19 -14 -127 -17 -63 -38 -137 -47 -164 -8 -27 -16 -62 -17 -79
-1 -29 -14 -37 -236 -164 l-235 -134 -3 104 -3 104 -24 -5 c-20 -3 -27 -15
-40 -60 -21 -70 -98 -236 -115 -247 -15 -9 -14 -8 26 70 44 83 90 218 108 315
23 117 26 110 -52 110 l-68 0 -12 -73 c-16 -104 -56 -226 -113 -342 -47 -96
-145 -242 -155 -232 -3 3 15 32 39 65 57 78 139 237 171 332 27 83 55 218 48
238 -2 8 -33 12 -106 12 l-103 0 -18 -82 c-34 -164 -132 -417 -206 -537 -15
-23 -35 -30 -22 -7 4 8 7 51 5 95 l-4 81 -34 0 c-30 0 -34 -3 -34 -26 0 -37
-21 -115 -30 -109 -4 2 -1 28 6 57 20 77 20 80 -23 76 -38 -3 -38 -3 -41 -50
-2 -27 -5 -48 -8 -48 -10 0 -83 40 -88 48 -3 5 4 38 16 74 l21 65 -43 63 c-27
40 -45 58 -50 50 -4 -6 -18 -50 -31 -96 -26 -95 -32 -98 -93 -56 l-39 27 2
290 c0 160 -3 317 -8 350 -24 148 -33 191 -40 198 -5 5 -17 -31 -26 -80 -14
-69 -19 -155 -22 -395 -3 -170 -6 -308 -8 -308 -6 0 -740 422 -749 430 -6 6 1
13 15 19 19 7 748 365 1304 640 44 22 86 40 92 40 7 1 46 -14 85 -33z m1223
-594 l139 -68 -109 -62 -110 -61 -13 42 c-32 103 -60 217 -54 217 4 0 70 -31
147 -68z m-2345 -500 l385 -221 3 -162 3 -162 -53 6 c-61 7 -130 -3 -135 -19
-2 -6 5 -22 16 -35 l19 -24 45 23 c24 12 60 22 79 22 38 0 48 -14 48 -71 0
-30 28 -48 42 -27 4 7 8 32 8 56 l0 42 49 -4 c27 -2 61 -12 75 -21 30 -20 66
-6 66 25 0 26 -14 32 -84 35 -33 2 -69 3 -78 4 -16 1 -18 14 -18 131 l0 131
29 -15 29 -15 -20 -68 c-25 -89 -32 -139 -22 -145 5 -3 26 -3 46 -1 36 5 38 7
64 79 15 41 29 74 32 74 2 0 29 -14 59 -31 53 -30 54 -32 53 -73 -3 -69 -2
-70 40 -36 23 18 43 30 46 27 3 -3 -22 -26 -55 -52 -106 -81 -63 -100 77 -35
36 17 67 28 70 26 5 -6 -101 -60 -150 -75 -21 -7 -41 -17 -44 -23 -9 -14 119
-2 182 17 24 7 44 10 44 5 0 -4 -27 -15 -60 -24 -32 -9 -62 -21 -65 -26 -3 -5
2 -127 12 -270 15 -224 15 -290 5 -473 -15 -273 -53 -667 -65 -667 -5 0 -6 17
-3 38 7 42 30 292 46 487 18 230 10 688 -16 853 -4 29 -8 32 -39 32 l-35 0 0
-92 c0 -51 7 -169 15 -263 17 -199 19 -365 5 -525 -13 -155 -51 -452 -59 -468
-5 -8 -57 17 -176 86 -94 55 -273 159 -400 232 -126 73 -313 182 -415 241
l-185 107 -3 812 -2 812 52 -30 c29 -17 226 -129 438 -250z m2590 -530 l0
-809 -626 -362 c-345 -199 -629 -360 -631 -358 -9 10 -25 130 -58 447 -18 170
-20 409 -4 559 6 58 14 205 18 326 l8 220 1 -195 c1 -108 -5 -266 -13 -355
-20 -215 -19 -334 5 -560 11 -104 20 -196 20 -202 0 -22 34 -14 96 22 68 41
121 93 130 130 8 33 -17 71 -53 80 -15 3 -37 13 -48 21 -20 15 -20 27 -21 562
-1 301 2 563 6 582 4 19 8 -218 9 -527 1 -380 4 -563 11 -563 28 0 79 31 113
69 l37 41 0 555 0 555 27 17 c42 28 957 551 966 552 4 1 7 -363 7 -807z
m-1395 -375 c-8 -114 -15 -253 -15 -310 0 -146 47 -759 66 -864 4 -19 2 -33
-3 -33 -6 0 -13 33 -17 73 -4 39 -16 162 -27 272 -29 293 -35 663 -15 912 9
111 17 235 18 275 2 67 2 65 6 -22 1 -52 -4 -188 -13 -303z"/>
<path d="M2064 3460 c-28 -11 -84 -77 -84 -99 0 -32 27 -32 89 0 l59 30 57
-30 c74 -40 85 -39 85 2 0 49 -64 99 -133 102 -29 2 -61 -1 -73 -5z"/>
<path d="M1980 3289 c0 -23 5 -27 38 -33 46 -7 187 -6 227 3 23 5 30 12 30 31
l0 24 -147 1 -148 0 0 -26z"/>
<path d="M1937 3211 c-29 -35 -33 -55 -16 -98 12 -32 99 -124 111 -117 4 3 12
23 18 45 10 35 8 45 -11 77 -12 20 -29 43 -38 50 -9 7 -21 27 -26 44 l-11 31
-27 -32z"/>
<path d="M2016 3232 c-11 -18 19 -96 49 -128 38 -40 70 -44 109 -13 32 25 66
89 66 124 l0 25 -109 0 c-61 0 -112 -4 -115 -8z"/>
<path d="M2281 3207 c-7 -20 -19 -37 -27 -37 -8 0 -14 -5 -14 -11 0 -6 -10
-24 -21 -41 -17 -23 -20 -39 -16 -70 8 -60 23 -62 74 -11 69 69 82 130 39 179
l-23 28 -12 -37z"/>
<path d="M2059 3015 c-13 -46 -19 -52 -71 -80 -32 -16 -58 -34 -58 -38 0 -23
45 -67 87 -87 59 -27 149 -30 209 -5 38 15 42 20 52 68 10 48 9 53 -11 67 -44
30 -77 72 -77 99 0 26 -2 27 -58 26 l-59 0 -14 -50z"/>
<path d="M1849 2865 c-47 -25 -79 -61 -79 -92 0 -10 33 -66 73 -125 59 -88 76
-107 97 -108 24 0 24 1 -7 20 -50 30 -83 116 -53 135 6 4 10 -10 10 -35 0 -81
83 -125 160 -85 16 8 31 24 35 35 3 11 11 20 16 20 20 0 -22 -58 -53 -73 l-33
-17 77 0 78 0 16 38 c25 60 72 206 68 213 -2 4 -23 0 -46 -8 -91 -32 -229 6
-273 75 -24 37 -27 38 -86 7z"/>
</g>
</svg>
